# xmcd CD database file
#
# Track frame offsets:
#	150
#	24507
#	52930
#	73689
#	95842
#	124373
#	151264
#	175725
#	198579
#
# Disc length: 2959 seconds
#
# Revision: 3
# Processed by: cddbd v1.5.2PL0 Copyright (c) Steve Scherf et al.
# Submitted via: CDex 1.51
#
DISCID=790b8d09
DTITLE=Joe Bonamassa - Live At Carnegie Hall - An Acoustic Evening (1)
DYEAR=2016
DGENRE=Blues Rock
TTITLE0=This Train
TTITLE1=Drive
TTITLE2=The Valley Runs Low
TTITLE3=Dust Bowl
TTITLE4=Driving Towards The Daylight
TTITLE5=Black Lung Heartache
TTITLE6=Blue And Evil
TTITLE7=Livin' Easy
TTITLE8=Get Back My Tomorrow
EXTD=YEAR: 2016
EXTT0=
EXTT1=
EXTT2=
EXTT3=
EXTT4=
EXTT5=
EXTT6=
EXTT7=
EXTT8=
PLAYORDER=
